<svg xmlns="http://www.w3.org/2000/svg" xmlns:xlink="http://www.w3.org/1999/xlink" width="1080" zoomAndPan="magnify" viewBox="0 0 810 809.999993" height="1080" preserveAspectRatio="xMidYMid meet" version="1.0"><defs><g/></defs><g fill="#4aa3d6" fill-opacity="1"><g transform="translate(120.796872, 500.10023)"><g><path d="M 86.3125 -29.828125 L 94.484375 -6.578125 C 91.078125 -3.773438 86.800781 -1.582031 81.65625 0 C 76.519531 1.582031 70.703125 2.375 64.203125 2.375 C 50.660156 2.375 40.375 -1.304688 33.34375 -8.671875 C 26.3125 -16.046875 22.796875 -26.765625 22.796875 -40.828125 L 22.796875 -100.265625 L 3.75 -100.265625 L 3.75 -125.21875 L 22.796875 -125.21875 L 22.796875 -149.609375 L 54.21875 -154.71875 L 54.21875 -125.21875 L 89.71875 -125.21875 L 89.71875 -100.265625 L 54.21875 -100.265625 L 54.21875 -43.109375 C 54.21875 -36.898438 55.503906 -32.378906 58.078125 -29.546875 C 60.648438 -26.710938 64.390625 -25.296875 69.296875 -25.296875 C 74.898438 -25.296875 79.78125 -26.804688 83.9375 -29.828125 Z M 86.3125 -29.828125 "/></g></g></g><g fill="#4aa3d6" fill-opacity="1"><g transform="translate(216.528846, 500.10023)"><g><path d="M 123.640625 -55.46875 L 43.21875 -55.46875 C 44.125 -44.570312 47.222656 -36.644531 52.515625 -31.6875 C 57.804688 -26.738281 65.03125 -24.265625 74.1875 -24.265625 C 81.363281 -24.265625 87.179688 -25.609375 91.640625 -28.296875 C 96.109375 -30.984375 99.703125 -35.050781 102.421875 -40.5 L 104.8125 -40.5 L 125.671875 -27.109375 C 121.585938 -18.335938 115.425781 -11.226562 107.1875 -5.78125 C 98.945312 -0.34375 87.945312 2.375 74.1875 2.375 C 61.25 2.375 50.070312 -0.078125 40.65625 -4.984375 C 31.25 -9.898438 23.992188 -17.21875 18.890625 -26.9375 C 13.785156 -36.65625 11.234375 -48.507812 11.234375 -62.5 C 11.234375 -76.71875 13.914062 -88.703125 19.28125 -98.453125 C 24.644531 -108.203125 31.898438 -115.476562 41.046875 -120.28125 C 50.203125 -125.082031 60.488281 -127.484375 71.90625 -127.484375 C 89.601562 -127.484375 103.160156 -122.796875 112.578125 -113.421875 C 121.992188 -104.046875 126.703125 -90.285156 126.703125 -72.140625 C 126.703125 -65.554688 126.472656 -60.453125 126.015625 -56.828125 Z M 96.640625 -75.765625 C 96.335938 -85.296875 94.125 -92.234375 90 -96.578125 C 85.882812 -100.929688 79.851562 -103.109375 71.90625 -103.109375 C 56.03125 -103.109375 46.691406 -93.992188 43.890625 -75.765625 Z M 96.640625 -75.765625 "/></g></g></g><g fill="#4aa3d6" fill-opacity="1"><g transform="translate(352.527224, 500.10023)"><g><path d="M 72.9375 2.375 C 60.832031 2.375 50.128906 -0.132812 40.828125 -5.15625 C 31.523438 -10.1875 24.265625 -17.578125 19.046875 -27.328125 C 13.835938 -37.085938 11.234375 -48.8125 11.234375 -62.5 C 11.234375 -76.257812 13.835938 -88.015625 19.046875 -97.765625 C 24.265625 -107.523438 31.488281 -114.914062 40.71875 -119.9375 C 49.945312 -124.96875 60.492188 -127.484375 72.359375 -127.484375 C 98.753906 -127.484375 115.65625 -117.921875 123.0625 -98.796875 L 101.515625 -83.375 L 99.140625 -83.375 C 96.566406 -89.269531 93.21875 -93.648438 89.09375 -96.515625 C 84.976562 -99.390625 79.398438 -100.828125 72.359375 -100.828125 C 63.285156 -100.828125 56.21875 -97.6875 51.15625 -91.40625 C 46.09375 -85.132812 43.5625 -75.5 43.5625 -62.5 C 43.5625 -49.644531 46.128906 -40.054688 51.265625 -33.734375 C 56.410156 -27.421875 63.632812 -24.265625 72.9375 -24.265625 C 79.738281 -24.265625 85.5 -26.097656 90.21875 -29.765625 C 94.945312 -33.441406 98.332031 -38.71875 100.375 -45.59375 L 102.765625 -45.828125 L 125.109375 -33.578125 C 121.929688 -22.984375 116.050781 -14.34375 107.46875 -7.65625 C 98.882812 -0.96875 87.375 2.375 72.9375 2.375 Z M 72.9375 2.375 "/></g></g></g><g fill="#4aa3d6" fill-opacity="1"><g transform="translate(481.493183, 500.10023)"><g><path d="M 18.03125 0 L 18.03125 -175.359375 L 49.453125 -175.359375 L 49.453125 -108.78125 L 51.828125 -108.328125 C 55.992188 -114.453125 61.097656 -119.175781 67.140625 -122.5 C 73.191406 -125.820312 80.492188 -127.484375 89.046875 -127.484375 C 116.640625 -127.484375 130.4375 -111.832031 130.4375 -80.53125 L 130.4375 0 L 99.015625 0 L 99.015625 -76.5625 C 99.015625 -85.101562 97.3125 -91.300781 93.90625 -95.15625 C 90.507812 -99.019531 85.21875 -100.953125 78.03125 -100.953125 C 69.257812 -100.953125 62.300781 -98.019531 57.15625 -92.15625 C 52.019531 -86.300781 49.453125 -77.171875 49.453125 -64.765625 L 49.453125 0 Z M 18.03125 0 "/></g></g></g><g fill="#00bf63" fill-opacity="1"><g transform="translate(628.042944, 500.10023)"><g><path d="M 30.515625 1.140625 C 26.203125 1.140625 22.796875 -0.0664062 20.296875 -2.484375 C 17.804688 -4.910156 16.5625 -8.128906 16.5625 -12.140625 C 16.5625 -16.066406 17.804688 -19.296875 20.296875 -21.828125 C 22.796875 -24.367188 26.203125 -25.640625 30.515625 -25.640625 C 34.898438 -25.640625 38.335938 -24.425781 40.828125 -22 C 43.328125 -19.582031 44.578125 -16.367188 44.578125 -12.359375 C 44.578125 -8.359375 43.3125 -5.109375 40.78125 -2.609375 C 38.25 -0.109375 34.828125 1.140625 30.515625 1.140625 Z M 30.515625 1.140625 "/></g></g></g></svg>